<svg xmlns="http://www.w3.org/2000/svg" width="32" height="32" viewBox="0 0 32 32"><defs><style>.a{fill:none;}.b{fill:#fff;}</style></defs><g transform="translate(136 -118)"><g transform="translate(-136 118)"><path class="a" d="M0,0H32V32H0Z"/><path class="b" d="M18.667,26.666H8a8,8,0,0,1-8-8V8A8,8,0,0,1,8,0H18.667a8,8,0,0,1,8,8V18.667a8,8,0,0,1-8,8ZM8,2.666A5.339,5.339,0,0,0,2.666,8V18.667A5.339,5.339,0,0,0,8,24h5.333V16H11.2a.534.534,0,0,1-.533-.533v-1.6a.534.534,0,0,1,.533-.533h8.266a.534.534,0,0,1,.533.533v1.6a.534.534,0,0,1-.533.533H16v8h2.666A5.339,5.339,0,0,0,24,18.667V8a5.339,5.339,0,0,0-5.333-5.333ZM15.467,12h-1.6a.534.534,0,0,1-.533-.533v-.8a4,4,0,0,1,4-4h2.133A.534.534,0,0,1,20,7.2V8.8a.534.534,0,0,1-.533.533H17.333A1.335,1.335,0,0,0,16,10.667v.8A.534.534,0,0,1,15.467,12Z" transform="translate(2.667 2.667)"/></g></g></svg>