<svg xmlns="http://www.w3.org/2000/svg" width="29.5" height="29.5" viewBox="0 0 29.5 29.5"><defs><style>.a{fill:none;}.b{fill:#fff;}</style></defs><g transform="translate(50 27)"><g transform="translate(-50 -27)"><path class="a" d="M0,0H29.5V29.5H0Z"/><path class="b" d="M7.375,22.125c-2.136,0-5.263-.75-6.8-2.005A1.384,1.384,0,0,1,0,18.966a1.443,1.443,0,0,1,1.435-1.448c1.158,0,3.52-1.139,5.159-2.488a1.229,1.229,0,1,1,1.562,1.9A16.438,16.438,0,0,1,4.407,19.22a11.8,11.8,0,0,0,2.967.446A12.022,12.022,0,0,0,19.667,7.375c0-.589.149-.894,1.033-1.544-.358-.358-.676-.7-.946-1.014-.083-.1-.271-.323-.469-.562l0,0c-.226-.273-.46-.555-.532-.635a3.284,3.284,0,0,0-2.488-1.159,3.636,3.636,0,0,0-3.5,3.675l.017.157A1.98,1.98,0,0,1,10.81,8.479a2.019,2.019,0,0,1-.248-.015,12.936,12.936,0,0,1-9.074-5.25A1.231,1.231,0,0,1,1.7,1.488,1.23,1.23,0,0,1,3.429,1.7a10.41,10.41,0,0,0,6.879,4.238,6.278,6.278,0,0,1,1.818-4.2,5.749,5.749,0,0,1,8.457.239c.11.123.426.5.681.812.161.194.3.361.356.427l.158.185a3.11,3.11,0,0,0,.944.882,2.15,2.15,0,0,0,.473.1c.465.072,1.043.161,1.257.585a1.229,1.229,0,0,1-.544,1.651l-.026.013a12.323,12.323,0,0,0-1.319.717l-.018.012a.765.765,0,0,0-.426.508,14.778,14.778,0,0,1-4.269,10.041,14.109,14.109,0,0,1-4.611,3.077A15.257,15.257,0,0,1,7.375,22.125Zm-3.6-7.636a5.684,5.684,0,0,1-1.13-.112,1.229,1.229,0,1,1,.49-2.409,3.232,3.232,0,0,0,.641.063,3.192,3.192,0,0,0,.9-.125,1.229,1.229,0,0,1,.691,2.36A5.662,5.662,0,0,1,3.777,14.488ZM3.372,10H3.325A5.864,5.864,0,0,1,.617,9.213,1.231,1.231,0,0,1,.168,7.534a1.23,1.23,0,0,1,1.679-.449,3.4,3.4,0,0,0,1.57.455A1.229,1.229,0,0,1,3.372,10Z" transform="translate(2.458 3.687)"/></g></g></svg>