<svg xmlns="http://www.w3.org/2000/svg" viewBox="0 0 22.369 22.369" width="22.369" height="22.369">
  <path id="arrow-01-down-circle" fill="#3548ff" d="M 11.184 22.369 A 11.184 11.184 0 0 1 3.276 3.276 A 11.111 11.111 0 0 1 11.184 0 a 1.118 1.118 0 1 1 0 2.237 a 8.948 8.948 0 1 0 8.948 8.948 a 1.118 1.118 0 1 1 2.236 0 a 11.345 11.345 0 0 1 -3.4 8.034 A 11.007 11.007 0 0 1 11.184 22.369 Z m 0 -7.829 a 0.866 0.866 0 0 1 -0.656 -0.312 L 6.871 10.021 a 0.664 0.664 0 0 1 -0.16 -0.437 A 0.613 0.613 0 0 1 7.3 8.948 h 7.777 a 0.556 0.556 0 0 1 0.4 0.174 a 0.676 0.676 0 0 1 0.024 0.9 L 11.84 14.227 A 0.866 0.866 0 0 1 11.184 14.54 Z m 9.276 -6.152 A 1.117 1.117 0 0 1 19.43 7.7 c -0.073 -0.172 -0.15 -0.339 -0.229 -0.5 a 9.027 9.027 0 0 0 -4.039 -4.04 c -0.153 -0.077 -0.321 -0.154 -0.5 -0.229 a 1.119 1.119 0 1 1 0.87 -2.061 c 0.21 0.089 0.419 0.185 0.623 0.286 A 11.277 11.277 0 0 1 21.2 6.211 c 0.1 0.2 0.2 0.411 0.285 0.622 a 1.12 1.12 0 0 1 -1.03 1.554 Z" />
</svg>