<?xml version="1.0" encoding="utf-8"?>
<!-- Generator: Adobe Illustrator 23.0.2, SVG Export Plug-In . SVG Version: 6.00 Build 0)  -->
<svg version="1.1" id="Layer_1" xmlns="http://www.w3.org/2000/svg" xmlns:xlink="http://www.w3.org/1999/xlink" x="0px" y="0px"
	 viewBox="0 0 1503 454.5" style="enable-background:new 0 0 1503 454.5;" xml:space="preserve">
<style type="text/css">
	.st0{opacity:5.000000e-02;fill:#3548FF;enable-background:new    ;}
	.st1{fill:#3548FF;}
	.st2{fill:#3344EF;}
</style>
<title>Asset 3</title>
<g>
	<g id="Layer_1-2">
		<path id="Path_19" class="st0" d="M0,317c86.5-18,188-26,268.5-21c90.4,5.6,173.3,39.2,319.2,30.5c275.8-16.4,317-109.6,520.7-140
			s394.6-22.8,394.6-22.8v290.8H0V317z"/>
		<path id="Path_18" class="st1" d="M0,356c0,0,67-36,217.9-41.9c177.5-7,260.1,59,494,39C945.8,333.2,990.5,245,1168.5,190
			c173.3-53.6,334.5-31.3,334.5-31.3v295.8H0V356z"/>
		<path id="Path_20" class="st2" d="M0,406.9c0,0,44.7-68.9,234.6-77.3s278.5,63.7,528.9,42.1s295-131.7,470-182.7
			c134.5-39.2,269.5-20.1,269.5-20.1v285.6H0V406.9z"/>
	</g>
</g>
</svg>
