<?xml version="1.0" encoding="utf-8"?>
<!-- Generator: Adobe Illustrator 23.0.2, SVG Export Plug-In . SVG Version: 6.00 Build 0)  -->
<svg version="1.1" id="Layer_1" xmlns="http://www.w3.org/2000/svg" xmlns:xlink="http://www.w3.org/1999/xlink" x="0px" y="0px"
	 viewBox="0 0 1503 456" style="enable-background:new 0 0 1503 456;" xml:space="preserve">
<style type="text/css">
	.st0{opacity:5.000000e-02;fill:#3548FF;enable-background:new    ;}
	.st1{fill:#3548FF;}
	.st2{fill:#3344EF;}
	.st3{fill:url(#SVGID_1_);}
</style>
<title>Asset 3</title>
<g>
	<g id="Layer_1-2">
		<path id="Path_19" class="st0" d="M0,167.6c209.4-11.5,311.9,87.4,587.7,58.1s317-120,520.7-174.5S1503,10.6,1503,10.6v443.9H0
			V167.6z"/>
		<path id="Path_18" class="st1" d="M0,331.5c0,0,40.4-114,217.9-128c177.5-14,260.1,105.5,494,69.8s268.7-146.1,441.4-212.6
			S1503,1.6,1503,1.6v452.9H0V331.5z"/>
		<path id="Path_20" class="st2" d="M0,369.5c0,0,44.7-123.2,234.6-138.2c189.9-15,278.5,113.8,528.9,75.2S1051.1,148.9,1236,77.2
			s267-57.4,267-57.4v434.7H0V369.5z"/>
	</g>
</g>
<linearGradient id="SVGID_1_" gradientUnits="userSpaceOnUse" x1="751.502" y1="2.8" x2="751.502" y2="457.3" gradientTransform="matrix(1 0 0 -1 0 458.8)">
	<stop  offset="0" style="stop-color:#FFFFFF"/>
	<stop  offset="1" style="stop-color:#FFFFFF;stop-opacity:0"/>
</linearGradient>
<rect y="1.5" class="st3" width="1503" height="454.5"/>
</svg>
