<?xml version="1.0" encoding="utf-8"?>
<!-- Generator: Adobe Illustrator 23.0.2, SVG Export Plug-In . SVG Version: 6.00 Build 0)  -->
<svg version="1.1" id="Layer_1" xmlns="http://www.w3.org/2000/svg" xmlns:xlink="http://www.w3.org/1999/xlink" x="0px" y="0px"
	 viewBox="0 0 1503 454.5" style="enable-background:new 0 0 1503 454.5;" xml:space="preserve">
<style type="text/css">
	.st0{opacity:5.000000e-02;fill:#3548FF;enable-background:new    ;}
	.st1{fill:#3548FF;}
	.st2{fill:#3344EF;}
</style>
<title>Asset 3</title>
<g>
	<g id="Layer_1-2">
		<path id="Path_19" class="st0" d="M1503,317c-86.5-18-188-26-268.5-21c-90.4,5.6-173.3,39.2-319.2,30.5
			c-275.8-16.4-317-109.6-520.7-140S0,163.7,0,163.7v290.8h1503V317z"/>
		<path id="Path_18" class="st1" d="M1503,356c0,0-67-36-217.9-41.9c-177.5-7-260.1,59-494,39C557.2,333.2,512.5,245,334.5,190
			C161.2,136.4,0,158.7,0,158.7v295.8h1503V356z"/>
		<path id="Path_20" class="st2" d="M1503,406.9c0,0-44.7-68.9-234.6-77.3s-278.5,63.7-528.9,42.1S444.5,240,269.5,189
			C135,149.8,0,168.9,0,168.9v285.6h1503V406.9z"/>
	</g>
</g>
</svg>
