<?xml version="1.0" encoding="utf-8"?>
<!-- Generator: Adobe Illustrator 23.0.2, SVG Export Plug-In . SVG Version: 6.00 Build 0)  -->
<svg version="1.1" id="Layer_1" xmlns="http://www.w3.org/2000/svg" xmlns:xlink="http://www.w3.org/1999/xlink" x="0px" y="0px"
	 viewBox="0 0 142 39" style="enable-background:new 0 0 142 39;" xml:space="preserve">
<style type="text/css">
	.st0{fill-rule:evenodd;clip-rule:evenodd;fill:#181616;}
	.st1{fill:#0F0D0E;}
</style>
<path class="st0" d="M20.6,0.2C9.8,0.2,1,9,1,19.8c0,8.7,5.6,16,13.4,18.6c1,0.2,1.3-0.4,1.3-0.9c0-0.5,0-1.7,0-3.3
	c-5.5,1.2-6.6-2.6-6.6-2.6c-0.9-2.3-2.2-2.9-2.2-2.9c-1.8-1.2,0.1-1.2,0.1-1.2c2,0.1,3,2,3,2c1.8,3,4.6,2.1,5.7,1.6
	c0.2-1.3,0.7-2.1,1.2-2.6c-4.4-0.5-8.9-2.2-8.9-9.7c0-2.1,0.8-3.9,2-5.3C9.9,13,9.2,11,10.3,8.3c0,0,1.6-0.5,5.4,2
	c1.6-0.4,3.2-0.7,4.9-0.7c1.7,0,3.3,0.2,4.9,0.7c3.7-2.5,5.4-2,5.4-2c1.1,2.7,0.4,4.7,0.2,5.2c1.3,1.4,2,3.1,2,5.3
	c0,7.5-4.6,9.2-9,9.7c0.7,0.6,1.3,1.8,1.3,3.6c0,2.6,0,4.7,0,5.4c0,0.5,0.4,1.1,1.3,0.9c7.8-2.6,13.4-9.9,13.4-18.6
	C40.2,9,31.4,0.2,20.6,0.2z"/>
<g>
	<path class="st1" d="M66.2,17.5h-7.8c-0.2,0-0.4,0.2-0.4,0.4v3.8c0,0.2,0.2,0.4,0.4,0.4h3.1v4.8c0,0-0.7,0.2-2.6,0.2
		c-2.2,0-5.4-0.8-5.4-7.7c0-6.9,3.3-7.8,6.3-7.8c2.6,0,3.8,0.5,4.5,0.7c0.2,0.1,0.4-0.2,0.4-0.4l0.9-3.7c0-0.1,0-0.2-0.1-0.3
		c-0.3-0.2-2.1-1.2-6.6-1.2c-5.2,0-10.6,2.2-10.6,12.9c0,10.7,6.1,12.3,11.3,12.3c4.3,0,6.9-1.8,6.9-1.8c0.1-0.1,0.1-0.2,0.1-0.3
		V17.9C66.6,17.7,66.4,17.5,66.2,17.5z"/>
	<path class="st1" d="M106.6,8c0-0.2-0.2-0.4-0.4-0.4h-4.4c-0.2,0-0.4,0.2-0.4,0.4c0,0,0,8.5,0,8.5h-6.9V8c0-0.2-0.2-0.4-0.4-0.4
		h-4.4c-0.2,0-0.4,0.2-0.4,0.4v23.1c0,0.2,0.2,0.4,0.4,0.4h4.4c0.2,0,0.4-0.2,0.4-0.4v-9.9h6.9c0,0,0,9.9,0,9.9
		c0,0.2,0.2,0.4,0.4,0.4h4.4c0.2,0,0.4-0.2,0.4-0.4V8z"/>
	<g>
		<g>
			<path class="st1" d="M74.6,11c0-1.6-1.3-2.9-2.8-2.9c-1.6,0-2.8,1.3-2.8,2.9c0,1.6,1.3,2.9,2.8,2.9C73.3,13.9,74.6,12.6,74.6,11z
				"/>
			<path class="st1" d="M74.2,26.2c0-0.6,0-10.7,0-10.7c0-0.2-0.2-0.4-0.4-0.4h-4.4c-0.2,0-0.4,0.2-0.4,0.4c0,0,0,12.8,0,15.3
				c0,0.4,0.3,0.6,0.6,0.6c0,0,1.9,0,4,0c0.4,0,0.5-0.2,0.5-0.6C74.2,30,74.2,26.8,74.2,26.2z"/>
		</g>
	</g>
	<path class="st1" d="M123.4,15.2H119c-0.2,0-0.4,0.2-0.4,0.4v11.3c0,0-1.1,0.8-2.7,0.8c-1.6,0-2-0.7-2-2.3c0-1.5,0-9.9,0-9.9
		c0-0.2-0.2-0.4-0.4-0.4h-4.4c-0.2,0-0.4,0.2-0.4,0.4c0,0,0,6,0,10.6c0,4.6,2.6,5.7,6.1,5.7c2.9,0,5.2-1.6,5.2-1.6s0.1,0.8,0.2,0.9
		c0.1,0.1,0.2,0.2,0.3,0.2l2.8,0c0.2,0,0.4-0.2,0.4-0.4l0-15.5C123.8,15.4,123.6,15.2,123.4,15.2z"/>
	<path class="st1" d="M135.4,14.7c-2.5,0-4.2,1.1-4.2,1.1V8c0-0.2-0.2-0.4-0.4-0.4h-4.4c-0.2,0-0.4,0.2-0.4,0.4v23.1
		c0,0.2,0.2,0.4,0.4,0.4c0,0,3.1,0,3.1,0c0.1,0,0.2-0.1,0.3-0.2c0.1-0.1,0.2-1.1,0.2-1.1s1.8,1.7,5.2,1.7c4,0,6.3-2,6.3-9.2
		C141.5,15.6,137.8,14.7,135.4,14.7z M133.6,27.7c-1.5,0-2.5-0.7-2.5-0.7v-7.3c0,0,1-0.6,2.3-0.7c1.6-0.1,3.1,0.3,3.1,4.1
		C136.4,27,135.8,27.8,133.6,27.7z"/>
	<path class="st1" d="M86.9,15.2h-3.3c0,0,0-4.4,0-4.4c0-0.2-0.1-0.2-0.3-0.2h-4.5c-0.2,0-0.3,0.1-0.3,0.2v4.5c0,0-2.3,0.5-2.4,0.6
		c-0.2,0-0.3,0.2-0.3,0.4v2.8c0,0.2,0.2,0.4,0.4,0.4h2.3c0,0,0,3,0,6.8c0,5.1,3.6,5.6,6,5.6c1.1,0,2.4-0.4,2.6-0.4
		c0.1,0,0.2-0.2,0.2-0.3l0-3.1c0-0.2-0.2-0.4-0.4-0.4c-0.2,0-0.7,0.1-1.2,0.1c-1.6,0-2.2-0.8-2.2-1.7c0-1,0-6.5,0-6.5h3.3
		c0.2,0,0.4-0.2,0.4-0.4v-3.6C87.3,15.4,87.1,15.2,86.9,15.2z"/>
</g>
</svg>
