<svg xmlns="http://www.w3.org/2000/svg" width="26.551" height="26.551" viewBox="0 0 26.551 26.551"><defs><style>.a{fill:#fff;}</style></defs><path class="a" d="M18.586,26.551H7.965A7.965,7.965,0,0,1,0,18.586V7.965A7.965,7.965,0,0,1,7.965,0H18.586a7.965,7.965,0,0,1,7.965,7.965V18.586a7.965,7.965,0,0,1-7.965,7.965ZM7.965,2.655a5.316,5.316,0,0,0-5.31,5.31V18.586a5.316,5.316,0,0,0,5.31,5.31H18.586a5.316,5.316,0,0,0,5.31-5.31V7.965a5.316,5.316,0,0,0-5.31-5.31Zm5.31,17.258a6.608,6.608,0,0,1-2.482-.48,1.328,1.328,0,1,1,.993-2.462,3.977,3.977,0,1,0-2.205-2.2,1.328,1.328,0,1,1-2.461,1,6.639,6.639,0,1,1,6.155,4.148ZM19.913,7.965a1.327,1.327,0,1,1,1.328-1.327A1.329,1.329,0,0,1,19.913,7.965Z"/></svg>