<?xml version="1.0" encoding="utf-8"?>
<!-- Generator: Adobe Illustrator 23.0.2, SVG Export Plug-In . SVG Version: 6.00 Build 0)  -->
<svg version="1.1" id="Layer_1" xmlns="http://www.w3.org/2000/svg" xmlns:xlink="http://www.w3.org/1999/xlink" x="0px" y="0px"
	 viewBox="0 0 24 24" style="enable-background:new 0 0 24 24;" xml:space="preserve">
<style type="text/css">
	.st0{fill:#3548FF;}
</style>
<path id="toggle" class="st0" d="M5.7,23.5c-2.9,0-5.2-2.3-5.2-5.2s2.3-5.2,5.2-5.2h12.7c2.9,0,5.2,2.3,5.2,5.2s-2.3,5.2-5.2,5.2
	H5.7z M2.8,18.3c0,1.6,1.3,2.9,2.9,2.9h12.7c1.6,0,2.9-1.3,2.9-2.9s-1.3-2.9-2.9-2.9H5.7C4.1,15.5,2.8,16.7,2.8,18.3z M16.6,18.3
	c0-1,0.8-1.7,1.7-1.7s1.7,0.8,1.7,1.7c0,1-0.8,1.7-1.7,1.7C17.4,20,16.6,19.3,16.6,18.3z M5.7,10.9c-2.9,0-5.2-2.3-5.2-5.2
	s2.3-5.2,5.2-5.2h12.7c2.9,0,5.2,2.3,5.2,5.2s-2.3,5.2-5.2,5.2H5.7z M2.8,5.7c0,1.6,1.3,2.9,2.9,2.9h12.7c1.6,0,2.9-1.3,2.9-2.9
	s-1.3-2.9-2.9-2.9H5.7C4.1,2.8,2.8,4.1,2.8,5.7z M3.9,5.7c0-1,0.8-1.7,1.7-1.7s1.7,0.8,1.7,1.7S6.6,7.4,5.7,7.4S4,6.6,3.9,5.7
	C4,5.7,4,5.7,3.9,5.7z"/>
</svg>
