<?xml version="1.0" encoding="utf-8"?>
<!-- Generator: Adobe Illustrator 23.0.2, SVG Export Plug-In . SVG Version: 6.00 Build 0)  -->
<svg version="1.1" id="Layer_1" xmlns="http://www.w3.org/2000/svg" xmlns:xlink="http://www.w3.org/1999/xlink" x="0px" y="0px"
	 viewBox="0 0 24 24" style="enable-background:new 0 0 24 24;" xml:space="preserve">
<style type="text/css">
	.st0{fill:#3548FF;}
</style>
<path id="security-03" class="st0" d="M11.5,23.8c-0.1,0-0.3,0-0.4-0.1c-0.2-0.1-0.4-0.2-0.6-0.3c-0.3-0.1-0.7-0.4-1.3-0.8
	c-0.6-0.4-1.2-0.8-1.8-1.2c-0.7-0.5-1.3-1-1.9-1.6c-0.6-0.6-1.2-1.3-1.8-2c-0.5-0.7-0.9-1.5-1.2-2.3C2.2,14.6,2,13.7,2,12.8V4.4
	c0-0.3,0.1-0.5,0.3-0.7C2.5,3.5,2.7,3.4,3,3.4c2.6-0.7,5.1-1.6,7.5-2.9c0.1-0.1,0.3-0.2,0.5-0.3c0.3-0.2,0.8-0.2,1.1,0
	c0.2,0.1,0.4,0.2,0.5,0.3c2.4,1.2,4.9,2.2,7.5,2.9c0.3,0,0.5,0.1,0.7,0.3C20.9,3.9,21,4.1,21,4.4v2c0,0.4-0.3,0.7-0.7,0.7h-0.9
	c-0.4,0-0.7-0.3-0.7-0.7v-1c-2.5-0.7-4.9-1.6-7.1-2.8C9.2,3.8,6.8,4.8,4.4,5.4v7.3c0,0.6,0.1,1.2,0.3,1.8c0.2,0.6,0.5,1.2,0.9,1.8
	C6.1,17,6.6,17.5,7.1,18c0.5,0.5,1.1,1,1.7,1.4c0.5,0.4,1.1,0.7,1.6,1.1c0.5,0.3,0.9,0.5,1.1,0.7c0.2-0.1,0.6-0.3,1.1-0.7
	c0.6-0.3,1.1-0.7,1.6-1.1c0.6-0.4,1.1-0.9,1.7-1.4c0.5-0.5,1-1.1,1.5-1.7c0.4-0.6,0.7-1.2,0.9-1.8c0.2-0.6,0.3-1.2,0.3-1.8v-0.2
	c0-0.4,0.3-0.7,0.7-0.7h0.9c0.4,0,0.7,0.3,0.7,0.7v0.2c0,0.9-0.2,1.8-0.5,2.7c-0.3,0.8-0.7,1.6-1.2,2.3c-0.5,0.7-1.1,1.4-1.8,2
	c-0.6,0.6-1.2,1.1-1.9,1.6c-0.6,0.4-1.2,0.8-1.8,1.2c-0.6,0.4-1.1,0.6-1.3,0.8s-0.5,0.2-0.6,0.3C11.8,23.7,11.6,23.7,11.5,23.8z
	 M10.3,15.4c-0.4,0-0.7-0.1-0.9-0.4l-2.5-2.5c-0.3-0.3-0.3-0.7,0-1l0.6-0.6c0.2-0.3,0.7-0.3,0.9,0c0,0,0,0,0,0l1.4,1.4
	c0.2,0.3,0.7,0.3,0.9,0c0,0,0,0,0,0l3.7-3.8c0.2-0.3,0.7-0.3,0.9,0c0,0,0,0,0,0l0.6,0.6c0.3,0.3,0.3,0.7,0,1L11.3,15
	C11,15.3,10.7,15.4,10.3,15.4z M20.2,10.7h-0.8c-0.4,0-0.8-0.4-0.8-0.8V9.1c0-0.4,0.4-0.8,0.8-0.8h0.8c0.4,0,0.8,0.4,0.8,0.8v0.8
	C21,10.3,20.6,10.7,20.2,10.7L20.2,10.7z"/>
</svg>
