<?xml version="1.0" encoding="utf-8"?>
<!-- Generator: Adobe Illustrator 23.0.2, SVG Export Plug-In . SVG Version: 6.00 Build 0)  -->
<svg version="1.1" id="Layer_1" xmlns="http://www.w3.org/2000/svg" xmlns:xlink="http://www.w3.org/1999/xlink" x="0px" y="0px"
	 viewBox="0 0 24 24" style="enable-background:new 0 0 24 24;" xml:space="preserve">
<style type="text/css">
	.st0{fill:#326DE6;}
	.st1{fill:#FFFFFF;}
</style>
<path id="path10349" class="st0" d="M21.9,5.6c-0.1-0.4-0.5-0.8-0.9-1l-8.2-3.9c-0.2-0.1-0.5-0.1-0.7-0.1s-0.5,0-0.7,0.1l-8.2,4
	c-0.4,0.2-0.7,0.5-0.8,1l-2,8.9c-0.1,0.5,0,0.9,0.3,1.3l5.7,7c0.3,0.3,0.8,0.5,1.2,0.6h9.1c0.5,0.1,0.9-0.2,1.2-0.6l5.7-7
	c0.3-0.4,0.4-0.8,0.3-1.3L21.9,5.6L21.9,5.6z"/>
<path id="path10351" class="st1" d="M20.7,14.1L20.7,14.1C20.6,14.1,20.6,14.1,20.7,14.1c-0.1-0.1-0.1-0.1-0.2-0.1
	c-0.1,0-0.2,0-0.3,0c-0.1,0-0.1,0-0.2,0h0c-0.3,0-0.6-0.1-0.9-0.2c-0.1,0-0.2-0.1-0.2-0.2c0,0,0,0,0,0l0,0l-0.2-0.1
	c0.1-0.8,0.1-1.6-0.1-2.4C18.4,10.5,18,9.7,17.6,9l0.2-0.2l0,0v0c0-0.1,0-0.2,0.1-0.2c0.2-0.2,0.5-0.4,0.8-0.5l0,0
	C18.7,8,18.7,8,18.8,8c0.1-0.1,0.2-0.1,0.3-0.2c0,0,0.1,0,0.1-0.1s0,0,0-0.1l0,0c0.2-0.2,0.3-0.5,0.1-0.8c-0.1-0.1-0.2-0.2-0.4-0.2
	c-0.1,0-0.3,0.1-0.4,0.1l0,0l0,0c0,0-0.1,0.1-0.1,0.1c-0.1,0.1-0.2,0.2-0.2,0.2c0,0.1-0.1,0.1-0.1,0.1l0,0c-0.2,0.2-0.4,0.4-0.7,0.6
	c-0.1,0-0.1,0.1-0.2,0.1c0,0-0.1,0-0.1,0h0l-0.2,0.1c-0.2-0.2-0.5-0.4-0.7-0.6c-1-0.8-2.2-1.3-3.5-1.4l0-0.2l0,0v0
	c-0.1-0.1-0.1-0.1-0.1-0.2c0-0.3,0-0.6,0.1-0.9v0c0-0.1,0-0.1,0-0.2c0-0.1,0-0.2,0.1-0.3V4l0,0c0-0.3-0.2-0.5-0.5-0.6
	c-0.2,0-0.3,0.1-0.5,0.2c-0.1,0.1-0.2,0.2-0.2,0.4l0,0v0.1c0,0.1,0,0.2,0.1,0.3c0,0.1,0,0.1,0,0.2v0c0.1,0.3,0.1,0.6,0.1,0.9
	c0,0.1-0.1,0.2-0.1,0.2v0.1l0,0l0,0.2c-0.3,0-0.6,0.1-0.9,0.1C9.4,6.5,8.2,7.2,7.3,8.1L7.2,8h0c0,0-0.1,0-0.1,0C7,8,6.9,8,6.9,8
	C6.6,7.8,6.4,7.6,6.2,7.3l0,0c0-0.1-0.1-0.1-0.1-0.1C6,7.2,5.9,7.1,5.9,7c0,0-0.1,0-0.1-0.1c0,0,0,0,0,0l0,0
	C5.7,6.8,5.5,6.8,5.4,6.8C5.2,6.8,5.1,6.8,5,7C4.8,7.2,4.9,7.5,5.1,7.7l0,0c0,0,0,0,0,0s0.1,0.1,0.1,0.1C5.3,7.9,5.4,7.9,5.5,8
	C5.6,8,5.6,8,5.7,8.1l0,0c0.3,0.2,0.5,0.3,0.8,0.5c0.1,0.1,0.1,0.2,0.1,0.2v0l0,0L6.7,9C6.7,9,6.6,9,6.6,9.1
	c-0.8,1.3-1.2,2.9-0.9,4.4l-0.2,0.1l0,0c0,0,0,0,0,0c0,0.1-0.1,0.1-0.2,0.2c-0.3,0.1-0.6,0.1-0.9,0.2l0,0c-0.1,0-0.1,0-0.2,0
	c-0.1,0-0.2,0-0.3,0c0,0-0.1,0-0.1,0c0,0,0,0-0.1,0l0,0c-0.3,0.1-0.5,0.3-0.4,0.6l0,0c0.1,0.2,0.3,0.4,0.5,0.4c0.1,0,0.1,0,0.1,0
	l0,0c0,0,0,0,0,0S4,15,4,15c0.1,0,0.2-0.1,0.3-0.1c0.1,0,0.1-0.1,0.2-0.1h0c0.3-0.1,0.6-0.2,0.9-0.2h0c0.1,0,0.2,0,0.2,0.1
	c0,0,0,0,0,0l0,0l0.2,0c0.4,1.2,1.2,2.3,2.2,3.2c0.2,0.2,0.5,0.4,0.7,0.5l-0.1,0.2l0,0c0,0,0,0,0,0c0.1,0.1,0.1,0.2,0,0.3
	c-0.1,0.3-0.3,0.5-0.4,0.8v0c0,0.1-0.1,0.1-0.1,0.1c-0.1,0.1-0.1,0.2-0.2,0.3c0,0,0,0.1-0.1,0.1c0,0,0,0,0,0l0,0
	c-0.1,0.3,0,0.6,0.2,0.7c0.1,0,0.1,0.1,0.2,0.1c0.2,0,0.4-0.1,0.5-0.3l0,0c0,0,0,0,0,0c0,0,0-0.1,0.1-0.1c0-0.1,0.1-0.2,0.1-0.3
	L9.1,20l0,0c0.1-0.3,0.2-0.6,0.4-0.8c0.1-0.1,0.1-0.1,0.2-0.2c0,0,0,0,0,0l0,0l0.1-0.2c0.8,0.3,1.5,0.4,2.3,0.4c0.5,0,1-0.1,1.5-0.2
	c0.3-0.1,0.6-0.2,0.9-0.2l0.1,0.2l0,0c0,0,0,0,0,0c0.1,0,0.2,0.1,0.2,0.2c0.1,0.3,0.3,0.5,0.4,0.8v0l0.1,0.2c0,0.1,0.1,0.2,0.1,0.3
	c0,0,0,0.1,0.1,0.1c0,0,0,0,0,0l0,0c0.1,0.2,0.3,0.3,0.5,0.3c0.1,0,0.1,0,0.2-0.1c0.1-0.1,0.2-0.2,0.2-0.3c0-0.1,0-0.3,0-0.4l0,0
	c0,0,0,0,0,0c0,0,0-0.1-0.1-0.1c-0.1-0.1-0.1-0.2-0.2-0.3c0-0.1-0.1-0.1-0.1-0.1v-0.1c-0.2-0.2-0.3-0.5-0.4-0.8c0-0.1,0-0.2,0-0.3
	c0,0,0,0,0,0l0,0l-0.1-0.2c1.4-0.8,2.4-2.1,2.9-3.7l0.2,0l0,0c0,0,0,0,0,0c0.1-0.1,0.1-0.1,0.2-0.1h0c0.3,0.1,0.6,0.1,0.9,0.2h0
	c0.1,0,0.1,0.1,0.2,0.1c0.1,0.1,0.2,0.1,0.3,0.1c0,0,0.1,0,0.1,0c0,0,0,0,0.1,0l0,0c0.1,0,0.1,0,0.1,0c0.2,0,0.5-0.2,0.5-0.4
	C21.1,14.4,20.9,14.2,20.7,14.1L20.7,14.1z M12.9,13.3l-0.7,0.4l-0.7-0.4l-0.2-0.8l0.5-0.6h0.8l0.5,0.6L12.9,13.3z M17.3,11.5
	c0.1,0.6,0.2,1.1,0.1,1.7l-2.6-0.7l0,0c-0.2-0.1-0.4-0.3-0.3-0.5c0-0.1,0.1-0.1,0.1-0.2l2-1.8C16.9,10.4,17.1,11,17.3,11.5z
	 M15.8,8.9l-2.2,1.6c-0.2,0.1-0.5,0.1-0.6-0.1c-0.1-0.1-0.1-0.1-0.1-0.2l-0.2-2.7C13.9,7.6,15,8.1,15.8,8.9
	C15.8,8.9,15.8,8.9,15.8,8.9z M10.9,7.6l0.5-0.1l-0.1,2.7l0,0c0,0.2-0.2,0.4-0.5,0.4c-0.1,0-0.1,0-0.2-0.1L8.4,8.9
	C9.1,8.3,10,7.8,10.9,7.6z M7.6,9.9l2,1.8l0,0c0.2,0.2,0.2,0.4,0.1,0.6c-0.1,0.1-0.1,0.1-0.2,0.1l-2.6,0.8C6.8,12.1,7,10.9,7.6,9.9z
	 M7.2,14.5L9.8,14c0.2,0,0.4,0.1,0.5,0.4c0,0.1,0,0.2,0,0.3l0,0l-1,2.5C8.3,16.5,7.5,15.6,7.2,14.5z M13.3,17.9
	c-0.4,0.1-0.8,0.1-1.2,0.1c-0.6,0-1.2-0.1-1.7-0.3l1.3-2.4c0.1-0.2,0.4-0.2,0.5-0.1c0.1,0.1,0.1,0.1,0.2,0.2l0,0l1.3,2.3
	C13.6,17.8,13.5,17.8,13.3,17.9z M16.6,15.5c-0.4,0.6-1,1.2-1.6,1.6l-1.1-2.5c-0.1-0.2,0.1-0.4,0.2-0.5c0.1,0,0.2-0.1,0.2-0.1
	l2.7,0.5C17,14.9,16.8,15.2,16.6,15.5z"/>
</svg>
