<svg xmlns="http://www.w3.org/2000/svg" width="26.874" height="21.5" viewBox="0 0 26.874 21.5"><defs><style>.a{fill:#fff;}</style></defs><path class="a" d="M20.156,21.5H16.125a1.344,1.344,0,1,1,0-2.688h4.031a4.036,4.036,0,0,0,4.031-4.031V6.719a4.036,4.036,0,0,0-4.031-4.031H6.719A4.036,4.036,0,0,0,2.687,6.719v8.062a4.036,4.036,0,0,0,4.031,4.031H10.75a1.344,1.344,0,0,1,0,2.688H6.719A6.726,6.726,0,0,1,0,14.781V6.719A6.726,6.726,0,0,1,6.719,0H20.156a6.726,6.726,0,0,1,6.719,6.719v8.062A6.726,6.726,0,0,1,20.156,21.5Zm-9.25-5.375a1.486,1.486,0,0,1-1.286-.732,1.513,1.513,0,0,1-.213-.775V6.882A1.5,1.5,0,0,1,11.675,5.59l6.41,3.868a1.511,1.511,0,0,1,0,2.584l-6.41,3.868A1.486,1.486,0,0,1,10.906,16.125Zm1.188-7.066V12.44l2.956-1.69Z"/></svg>